#!OML:ASF Y:\EmotionMaleHayes\Project 1\Capture day 1\Session 1\Male1.ASF
:FULLY-SPECIFIED
:DEGREES
195
root -3.69317 14.5196 -2.50894 185.554 -16.0529 -198.704
lowerback 23.1147 6.10529 -9.66505
upperback 8.97271 3.79672 -3.88883
thorax -3.36756 0.986354 0.303699
lowerneck -7.02235 -19.0413 -13.7662
upperneck 7.40861 -27.1957 19.4131
head 8.02975 -12.6869 4.88446
rclavicle 4.73108e-014 -8.5875e-014
rhumerus -18.5525 -12.5806 -40.091
rradius 86.2311
rwrist -23.0129
rhand -28.5635 -38.3876
rfingers 7.12502
rthumb -1.93013 -68.3587
lclavicle 4.73108e-014 -8.5875e-014
lhumerus -62.7431 38.4941 -22.136
lradius 40.9413
lwrist 42.853
lhand -50.4338 -29.7096
lfingers 7.12502
lthumb -23.0054 -1.06248
rfemur -38.927 -7.83047 28.3158
rtibia 56.9318
rfoot -27.9818 -15.1498
rtoes 43.189
lfemur -20.7446 -18.0016 4.27084
ltibia 66.8804
lfoot 6.28379 2.45798
ltoes 2.11327
196
root -3.61634 14.604 -2.60365 185.135 -13.9761 -198.854
lowerback 23.1324 6.326 -9.4802
upperback 8.9261 4.10786 -3.84228
thorax -3.44327 1.13867 0.164874
lowerneck -7.2696 -18.9771 -13.5222
upperneck 7.32442 -27.0616 19.2436
head 7.95984 -12.6132 4.81705
rclavicle -7.95139e-016 -3.81667e-014
rhumerus -15.7083 -14.2382 -40.1564
rradius 86.7915
rwrist -22.5665
rhand -29.1384 -38.0992
rfingers 7.12502
rthumb -2.48535 -68.0645
lclavicle -7.95139e-016 -3.81667e-014
lhumerus -62.6806 38.3565 -23.3491
lradius 41.2947
lwrist 45.2692
lhand -50.8503 -31.9632
lfingers 7.12502
lthumb -23.405 -3.36646
rfemur -36.8942 -6.55086 28.4075
rtibia 55.1106
rfoot -27.4912 -14.4189
rtoes 43.2245
lfemur -21.9373 -17.4884 3.14645
ltibia 68.8617
lfoot 3.67961 3.91197
ltoes 1.80985
197
root -3.53311 14.7002 -2.69835 184.495 -11.8369 -198.646
lowerback 23.3498 6.51797 -8.86795
upperback 8.87429 4.45518 -3.75581
thorax -3.59869 1.31916 -0.188625
lowerneck -7.19776 -18.8423 -13.4384
upperneck 7.04905 -26.871 19.357
head 7.83491 -12.5352 4.89482
rclavicle -3.97569e-015 -8.5875e-014
rhumerus -12.7496 -15.4912 -40.7665
rradius 87.4514
rwrist -22.9444
rhand -31.5551 -38.1992
rfingers 7.12502
rthumb -4.81915 -68.1244
lclavicle -3.97569e-015 -8.5875e-014
lhumerus -62.0435 37.4866 -23.5008
lradius 41.6796
lwrist 47.7361
lhand -51.1746 -33.6474
lfingers 7.12502
lthumb -23.7161 -5.09062
rfemur -34.4136 -5.0413 28.9027
rtibia 52.9043
rfoot -27.3714 -13.5082
rtoes 44.6296
lfemur -22.994 -16.7375 2.35982
ltibia 70.5433
lfoot 1.3647 4.75841
ltoes 1.36618
198
root -3.45121 14.808 -2.79718 183.928 -9.58344 -198.43
lowerback 23.4728 6.74105 -8.22304
upperback 8.82305 4.87693 -3.63604
thorax -3.70313 1.53787 -0.540647
lowerneck -7.17982 -18.7103 -13.365
upperneck 6.81949 -26.6749 19.4188
head 7.72615 -12.4505 4.95342
rclavicle -3.18055e-014 -7.63333e-014
rhumerus -9.67233 -16.4843 -41.7222
rradius 88.047
rwrist -23.1868
rhand -32.6087 -37.3629
rfingers 7.12502
rthumb -5.83646 -67.2625
lclavicle -3.18055e-014 -7.63333e-014
lhumerus -61.0369 36.4426 -23.0202
lradius 41.8741
lwrist 49.8133
lhand -51.3079 -34.577
lfingers 7.12502
lthumb -23.8439 -6.03685
rfemur -31.9089 -4.55648 29.5101
rtibia 50.2
rfoot -26.3355 -12.5117
rtoes 44.6294
lfemur -24.0761 -15.7677 1.46314
ltibia 71.943
lfoot -0.618408 5.5857
ltoes 1.89696
199
root -3.36606 14.9244 -2.89831 183.528 -7.11869 -198.554
lowerback 23.461 7.04939 -7.93489
upperback 8.76115 5.333 -3.60743
thorax -3.76606 1.76375 -0.797109
lowerneck -7.36495 -18.6267 -13.2793
upperneck 6.96151 -26.542 19.1749
head 7.72988 -12.3752 4.88168
rclavicle 2.94201e-014 6.83819e-014
rhumerus -6.49465 -17.103 -43.0025
rradius 88.5568
rwrist -23.0792
rhand -34.5781 -36.8191
rfingers 7.12502
rthumb -7.73759 -66.6575
lclavicle 2.94201e-014 6.83819e-014
lhumerus -59.8855 35.5033 -22.4491
lradius 41.7343
lwrist 51.2439
lhand -51.0969 -34.5082
lfingers 7.12502
lthumb -23.6415 -5.94176
rfemur -29.4893 -4.0903 29.7234
rtibia 47.4646
rfoot -25.3988 -11.2203
rtoes 44.9331
lfemur -25.2167 -14.5986 0.0790464
ltibia 73.1469
lfoot -2.50115 6.4707
ltoes 2.23351
200
root -3.2725 15.0508 -2.99779 183.137 -4.54403 -198.586
lowerback 23.5454 7.38002 -7.59294
upperback 8.63294 5.82168 -3.59949
thorax -3.93793 2.01265 -1.12598
lowerneck -7.3999 -18.5593 -13.2887
upperneck 7.24462 -26.4863 18.9625
head 7.78444 -12.3402 4.82439
rclavicle 5.00937e-014 -2.70347e-014
rhumerus -3.36996 -17.2405 -44.4552
rradius 88.8492
rwrist -22.5799
rhand -35.1125 -35.4569
rfingers 7.12502
rthumb -8.2533 -65.2757
lclavicle 5.00937e-014 -2.70347e-014
lhumerus -58.5975 34.2021 -21.4389
lradius 41.7643
lwrist 52.5203
lhand -50.7964 -33.6363
lfingers 7.12502
lthumb -23.3533 -5.03303
rfemur -27.033 -4.06179 30.1417
rtibia 44.5791
rfoot -24.2671 -10.2186
rtoes 43.9767
lfemur -26.4452 -13.2348 -1.21601
ltibia 74.1388
lfoot -4.15048 7.12056
ltoes 1.03999
201
root -3.17342 15.1894 -3.09615 182.735 -1.92336 -198.435
lowerback 23.6612 7.65771 -7.20789
upperback 8.50084 6.26265 -3.49621
thorax -4.12828 2.23988 -1.36659
lowerneck -7.35586 -18.4585 -13.3499
upperneck 7.35057 -26.3805 18.9022
head 7.79238 -12.2904 4.83828
rclavicle -3.4191e-014 7.95139e-014
rhumerus -0.0649725 -16.8278 -46.0877
rradius 88.7425
rwrist -21.5616
rhand -36.6378 -35.6493
rfingers 7.12502
rthumb -9.72525 -65.4047
lclavicle -3.4191e-014 7.95139e-014
lhumerus -57.8184 32.8976 -20.5337
lradius 42.0881
lwrist 53.1959
lhand -50.2207 -31.8446
lfingers 7.12502
lthumb -22.8009 -3.1722
rfemur -24.2623 -3.94434 30.5201
rtibia 41.2673
rfoot -23.2285 -7.9275
rtoes 45.7838
lfemur -27.7137 -11.7984 -2.33646
ltibia 74.8315
lfoot -5.67299 7.37427
ltoes -1.8093
202
root -3.06898 15.3374 -3.19494 182.412 0.860805 -198.341
lowerback 23.509 5.53972 -7.94379
upperback 8.22271 7.41969 -3.72106
thorax -4.24257 4.49329 -1.59809
lowerneck -7.46532 -18.4141 -13.4144
upperneck 7.47158 -26.3324 18.8279
head 7.8384 -12.2565 4.82189
rclavicle 1.66979e-014 -5.08889e-014
rhumerus 3.14892 -15.8338 -47.7003
rradius 88.4405
rwrist -20.605
rhand -38.2608 -35.0924
rfingers 7.12502
rthumb -11.2908 -64.7685
lclavicle 1.66979e-014 -5.08889e-014
lhumerus -57.3156 32.2844 -19.9981
lradius 42.3855
lwrist 53.0548
lhand -49.2449 -29.261
lfingers 7.12502
lthumb -21.8642 -0.476234
rfemur -21.4041 -4.0209 30.8562
rtibia 37.8868
rfoot -21.5907 -5.90005
rtoes 46.3119
lfemur -29.006 -10.242 -3.55292
ltibia 75.1687
lfoot -7.11226 7.68234
ltoes -6.66954
203
root -2.95494 15.4935 -3.29583 182.185 3.6912 -198.405
lowerback 23.4962 6.00043 -7.67545
upperback 8.10083 7.95925 -3.74995
thorax -4.36147 4.71839 -1.93777
lowerneck -7.71714 -18.4288 -13.1218
upperneck 7.81061 -26.3944 18.4924
head 7.90658 -12.2615 4.64973
rclavicle 1.19271e-014 3.18055e-015
rhumerus 5.84224 -14.4988 -48.9677
rradius 87.9835
rwrist -19.9674
rhand -39.6682 -34.1947
rfingers 7.12502
rthumb -12.6479 -63.7917
lclavicle 1.19271e-014 3.18055e-015
lhumerus -56.6288 31.4626 -18.9364
lradius 43.139
lwrist 53.6299
lhand -48.5212 -26.6912
lfingers 7.12502
lthumb -21.1691 2.17305
rfemur -18.5534 -3.88141 30.8885
rtibia 34.2528
rfoot -19.7112 -3.56751
rtoes 47.7938
lfemur -30.3759 -8.71553 -4.90903
ltibia 75.1657
lfoot -7.74534 8.13156
ltoes -7.63143
204
root -2.833 15.6558 -3.40167 182.071 6.34315 -198.363
lowerback 23.4725 6.44679 -7.32113
upperback 7.93834 8.49426 -3.78986
thorax -4.50135 4.94077 -2.3369
lowerneck -7.93704 -18.4579 -12.4742
upperneck 8.09227 -26.5126 18.1102
head 7.90438 -12.2952 4.41875
rclavicle -4.29375e-014 4.92986e-014
rhumerus 8.07917 -13.0556 -49.5213
rradius 87.4572
rwrist -19.9786
rhand -40.6473 -33.4782
rfingers 7.12502
rthumb -13.5917 -63.0145
lclavicle -4.29375e-014 4.92986e-014
lhumerus -55.6906 32.0646 -18.7007
lradius 43.1168
lwrist 52.7244
lhand -47.2016 -23.731
lfingers 7.12502
lthumb -19.9011 5.26999
rfemur -16.293 -5.51595 30.9663
rtibia 31.3967
rfoot -17.2723 -0.782558
rtoes 46.3661
lfemur -31.9028 -7.38119 -6.10644
ltibia 74.8997
lfoot -8.84568 8.51515
ltoes -10.0115
205
root -2.71083 15.8188 -3.51096 182.051 8.96307 -198.17
lowerback 23.3173 6.83439 -6.86367
upperback 7.82661 8.99642 -3.74252
thorax -4.51356 5.14432 -2.66344
lowerneck -7.90542 -18.4349 -12.2758
upperneck 8.07117 -26.5743 18.2306
head 7.89389 -12.3169 4.42384
rclavicle -1.35174e-014 -7.95139e-014
rhumerus 10.2154 -10.8913 -49.8443
rradius 86.9396
rwrist -20.012
rhand -41.7969 -33.1431
rfingers 7.12502
rthumb -14.6995 -62.602
lclavicle -1.35174e-014 -7.95139e-014
lhumerus -54.8272 32.9904 -18.5451
lradius 42.8719
lwrist 51.6425
lhand -45.294 -21.0611
lfingers 7.12502
lthumb -18.0665 8.11983
rfemur -13.5182 -6.25107 31.186
rtibia 27.7176
rfoot -14.3837 1.45768
rtoes 44.5334
lfemur -33.5343 -6.13528 -7.16869
ltibia 74.3768
lfoot -9.71949 8.74277
ltoes -12.0157
206
root -2.58252 15.9808 -3.61972 181.997 11.5571 -197.973
lowerback 23.2747 7.17152 -6.48628
upperback 7.71244 9.41232 -3.66917
thorax -4.58992 5.30786 -2.9095
lowerneck -7.8728 -18.3476 -12.2314
upperneck 7.98374 -26.5589 18.5467
head 7.90272 -12.301 4.51888
rclavicle 4.77083e-014 -2.22639e-014
rhumerus 12.1905 -7.95074 -49.2495
rradius 86.2966
rwrist -20.4589
rhand -42.3725 -32.2359
rfingers 7.12502
rthumb -15.254 -61.6534
lclavicle 4.77083e-014 -2.22639e-014
lhumerus -53.8851 33.3397 -17.9806
lradius 42.8116
lwrist 51.7165
lhand -43.9315 -19.0187
lfingers 7.12502
lthumb -16.7552 10.2783
rfemur -10.8259 -6.98431 31.2163
rtibia 24.3379
rfoot -11.4153 4.14816
rtoes 43.9918
lfemur -35.1465 -4.86369 -8.16599
ltibia 73.6506
lfoot -10.351 8.3839
ltoes -10.4412
207
root -2.44157 16.1444 -3.73084 182.056 13.9944 -197.495
lowerback 23.3502 7.47978 -5.81009
upperback 7.52775 9.8378 -3.62627
thorax -4.74878 5.47635 -3.37397
lowerneck -7.96333 -18.29 -11.8751
upperneck 7.8976 -26.6276 18.8729
head 7.90579 -12.3134 4.55388
rclavicle -1.04163e-013 5.88403e-014
rhumerus 14.5413 -6.01059 -50.9518
rradius 84.6
rwrist -18.6207
rhand -41.2853 -30.1299
rfingers 7.12502
rthumb -14.2065 -59.6241
lclavicle -1.04163e-013 5.88403e-014
lhumerus -52.5486 33.8028 -17.27
lradius 42.7391
lwrist 51.9554
lhand -42.8885 -17.2758
lfingers 7.12502
lthumb -15.751 12.1033
rfemur -8.38317 -6.10496 31.8005
rtibia 21.2915
rfoot -8.38535 5.33511
rtoes 44.1529
lfemur -36.777 -3.52924 -8.75266
ltibia 72.7555
lfoot -10.9342 9.90391
ltoes -14.5837
208
root -2.29249 16.308 -3.84701 182.366 16.3067 -196.829
lowerback 23.2821 7.75495 -4.96575
upperback 7.30691 10.2612 -3.5621
thorax -4.84424 5.63871 -3.88378
lowerneck -8.09679 -18.2385 -11.5258
upperneck 7.78106 -26.6963 19.213
head 7.90979 -12.325 4.58997
rclavicle -9.22361e-014 2.06736e-014
rhumerus 16.2334 -3.44035 -51.1755
rradius 83.3265
rwrist -17.7022
rhand -40.4034 -29.7469
rfingers 7.12502
rthumb -13.3567 -59.2988
lclavicle -9.22361e-014 2.06736e-014
lhumerus -51.2784 35.3059 -17.0191
lradius 42.543
lwrist 50.8594
lhand -41.3153 -15.5702
lfingers 7.12502
lthumb -14.2355 13.922
rfemur -6.23181 -6.02282 32.359
rtibia 18.3321
rfoot -4.69816 7.05807
rtoes 44.6527
lfemur -38.4686 -2.41179 -9.10388
ltibia 71.555
lfoot -12.1798 9.99337
ltoes -17.8128
209
root -2.13329 16.467 -3.9701 182.73 18.5705 -196.517
lowerback 23.0021 8.01338 -4.61057
upperback 7.08858 10.5756 -3.51842
thorax -4.89521 5.74795 -4.08981
lowerneck -8.40647 -18.2006 -11.3821
upperneck 7.98243 -26.7854 19.3874
head 8.0509 -12.3277 4.57308
rclavicle 6.04305e-014 -6.52014e-014
rhumerus 17.5602 -0.0507761 -50.0909
rradius 82.5141
rwrist -17.6712
rhand -38.9395 -29.4857
rfingers 7.12502
rthumb -11.9453 -59.1249
lclavicle 6.04305e-014 -6.52014e-014
lhumerus -50.2132 36.6622 -16.6945
lradius 42.4277
lwrist 49.4588
lhand -39.9079 -13.7464
lfingers 7.12502
lthumb -12.879 15.8362
rfemur -4.95544 -6.27613 32.397
rtibia 16.7273
rfoot -1.59126 8.70317
rtoes 43.3309
lfemur -40.0433 -1.78917 -9.76502
ltibia 69.8656
lfoot -12.6279 10.8946
ltoes -17.7506
